<svg data-v-0dd9719b="" version="1.0" xmlns="http://www.w3.org/2000/svg" xmlns:xlink="http://www.w3.org/1999/xlink" width="100%" height="100%" viewBox="0 0 340.000000 250.000000" preserveAspectRatio="xMidYMid meet" color-interpolation-filters="sRGB" style="margin: auto;"> <rect data-v-0dd9719b="" x="0" y="0" width="100%" height="100%" fill="#0d0821" fill-opacity="0" class="background"></rect> <rect data-v-0dd9719b="" x="0" y="0" width="100%" height="100%" fill="url(#watermark)" fill-opacity="1" class="watermarklayer"></rect> <g data-v-0dd9719b="" fill="#ff51f9" class="icon-text-wrapper icon-svg-group iconsvg" transform="translate(82.41500091552734,68.5199966430664)"><g class="iconsvg-imagesvg" transform="matrix(1,0,0,1,57.584999084472656,0)" mask="url(#44b68d4c-c2e8-4fd4-bd3f-ec6d66c3989d)" opacity="1"><g><rect fill="#ff51f9" fill-opacity="0" stroke-width="2" x="0" y="0" width="60" height="60" class="image-rect"></rect> <svg filter="url(#colors3050020234)" x="0" y="0" width="60" height="60" filtersec="colorsf3410854454" class="image-svg-svg primary" style="overflow: visible;"><svg xmlns="http://www.w3.org/2000/svg" viewBox="5.494626998901367 5.494626045227051 53.010711669921875 53.010746002197266" x="0px" y="0px"><g data-name="geometric"><path d="M31.293,29.2124a.99962.99962,0,0,0,1.41406,0L43.7124,18.207a.99962.99962,0,0,0,0-1.41406L32.707,5.7876a.99962.99962,0,0,0-1.41406,0L20.2876,16.793a.99962.99962,0,0,0,0,1.41406ZM32,7.90869,41.59131,17.5,32,27.09131,22.40869,17.5Z"></path><path d="M32,23.71045a.99676.99676,0,0,0,.707-.293l2.60765-2.60765,2.6028-2.6028a.99962.99962,0,0,0,0-1.41406c-1.30136-1.2983-3.90982-3.912-5.21046-5.21045a.99961.99961,0,0,0-1.414,0C29.99455,12.884,27.381,15.49225,26.08252,16.793a.99961.99961,0,0,0,0,1.414l2.60278,2.60278c.00023.00695,2.60576,2.60093,2.60767,2.60768A.99679.99679,0,0,0,32,23.71045Zm-1.90057-4.31464a2.68462,2.68462,0,0,1,3.8012-3.79156A2.68462,2.68462,0,0,1,30.09943,19.39581Z"></path><path d="M32.707,34.7876a.99962.99962,0,0,0-1.41406,0L20.2876,45.793a.99962.99962,0,0,0,0,1.41406L31.293,58.2124a.99962.99962,0,0,0,1.41406,0L43.7124,47.207a.99962.99962,0,0,0,0-1.41406ZM32,56.09131,22.40869,46.5,32,36.90869,41.59131,46.5Z"></path><path d="M31.293,40.58252c-1.29891,1.30151-3.91179,3.9099-5.21045,5.21046a.99961.99961,0,0,0,0,1.41405c1.30136,1.29855,3.90982,3.91185,5.21046,5.21045a.99961.99961,0,0,0,1.41405,0c1.29842-1.30123,3.91194-3.90992,5.21045-5.21046a.99961.99961,0,0,0,0-1.41405l-2.60765-2.60765-2.6028-2.6028A.99962.99962,0,0,0,31.293,40.58252Zm2.6076,4.02167a2.68462,2.68462,0,0,1-3.8012,3.79156A2.68462,2.68462,0,0,1,33.90057,44.60419Z"></path><path d="M58.2124,31.293,47.207,20.2876a.99962.99962,0,0,0-1.41406,0L34.7876,31.293a.99962.99962,0,0,0,0,1.41406L45.793,43.7124a.99962.99962,0,0,0,1.41406,0L58.2124,32.707A.99962.99962,0,0,0,58.2124,31.293ZM46.5,41.59131,36.90869,32,46.5,22.40869,56.09131,32Z"></path><path d="M45.793,26.08252c-1.29891,1.30151-3.91179,3.9099-5.21045,5.21046a.99961.99961,0,0,0,0,1.41405c1.30136,1.29855,3.90982,3.91185,5.21046,5.21045a.99961.99961,0,0,0,1.41405,0c1.29842-1.30123,3.91194-3.90992,5.21045-5.21046a.99961.99961,0,0,0,0-1.414l-2.60765-2.60765-2.6028-2.6028A.99962.99962,0,0,0,45.793,26.08252Zm2.6076,4.02167a2.68462,2.68462,0,0,1-3.8012,3.79156A2.68462,2.68462,0,0,1,48.40057,30.10419Z"></path><path d="M29.2124,31.293,18.207,20.2876a.99962.99962,0,0,0-1.41406,0L5.7876,31.293a.99962.99962,0,0,0,0,1.41406L16.793,43.7124a.99962.99962,0,0,0,1.41406,0L29.2124,32.707A.99962.99962,0,0,0,29.2124,31.293ZM17.5,41.59131,7.90869,32,17.5,22.40869,27.09131,32Z"></path><path d="M16.793,26.08252c-1.29891,1.30151-3.91179,3.9099-5.21045,5.21046a.99961.99961,0,0,0,0,1.41405c1.30136,1.29855,3.90982,3.91185,5.21046,5.21045a.99961.99961,0,0,0,1.414,0c1.29842-1.30123,3.91194-3.90992,5.21045-5.21046a.99961.99961,0,0,0,0-1.414l-2.60765-2.60765-2.6028-2.6028A.99962.99962,0,0,0,16.793,26.08252Zm2.6076,4.02167a2.68462,2.68462,0,0,1-3.8012,3.79156A2.68462,2.68462,0,0,1,19.40057,30.10419Z"></path></g></svg></svg> <defs><filter id="colors3050020234"><feColorMatrix type="matrix" values="0 0 0 0 0.99609375  0 0 0 0 0.31640625  0 0 0 0 0.97265625  0 0 0 1 0" class="icon-fecolormatrix"></feColorMatrix></filter> <filter id="colorsf3410854454"><feColorMatrix type="matrix" values="0 0 0 0 0.99609375  0 0 0 0 0.99609375  0 0 0 0 0.99609375  0 0 0 1 0" class="icon-fecolormatrix"></feColorMatrix></filter> <filter id="colorsb4384231168"><feColorMatrix type="matrix" values="0 0 0 0 0  0 0 0 0 0  0 0 0 0 0  0 0 0 1 0" class="icon-fecolormatrix"></feColorMatrix></filter></defs></g><rect v-gra="id" width="72" height="72.00000762939453" transform="translate(-6, -6)" style="pointer-events:none;" fill="url(#CdPaw70CVZzC-8Z9WKImX)"></rect></g> <g transform="translate(0,67.00000762939453)"><g data-gra="path-name" fill-rule="" class="tp-name iconsvg-namesvg" fill="url(#e957296d-246e-47d3-a39e-528a084481fb)" opacity="1" transform="matrix(1,0,0,1,0,0)"><g transform="scale(1)"><g><path d="M30.62-19.42L30.62-13.42 11.79-13.42 11.79-19.42 30.62-19.42ZM33.27-32.84L33.27-26.89 9.41-26.89 9.41 0 3.46 0 3.46-29.84Q3.46-30.46 3.69-31.01 3.92-31.56 4.32-31.97 4.72-32.38 5.27-32.61 5.82-32.84 6.46-32.84L6.46-32.84 33.27-32.84ZM61.28-16.56L61.28-8.2Q61.28-6.96 60.85-5.53 60.41-4.1 59.44-2.87 58.47-1.65 56.9-0.82 55.33 0 53.08 0L53.08 0 42.34 0Q41.11 0 39.68-0.44 38.24-0.87 37.02-1.84 35.79-2.82 34.97-4.39 34.15-5.95 34.15-8.2L34.15-8.2Q34.15-9.44 34.58-10.88 35.02-12.32 35.99-13.55 36.96-14.77 38.53-15.6 40.1-16.42 42.34-16.42L42.34-16.42 53.08-16.42 53.08-10.74 42.34-10.74Q41.13-10.74 40.47-10 39.8-9.25 39.8-8.15L39.8-8.15Q39.8-6.98 40.57-6.33 41.34-5.68 42.39-5.68L42.39-5.68 53.08-5.68Q54.3-5.68 54.96-6.41 55.63-7.15 55.63-8.24L55.63-8.24 55.63-16.56Q55.63-17.73 54.9-18.41 54.18-19.1 53.08-19.1L53.08-19.1 40.01-19.1 40.01-24.76 53.08-24.76Q54.32-24.76 55.75-24.32 57.18-23.89 58.41-22.91 59.63-21.94 60.46-20.37 61.28-18.8 61.28-16.56L61.28-16.56ZM90.34-5.95L90.34 0 74.2 0Q72.96 0 71.5-0.44 70.03-0.87 68.78-1.87 67.53-2.86 66.7-4.45 65.86-6.05 65.86-8.36L65.86-8.36 65.86-16.42Q65.86-17.27 66.06-18.21 66.25-19.15 66.66-20.07 67.08-21 67.73-21.85 68.38-22.69 69.31-23.34 70.24-23.98 71.45-24.37 72.66-24.76 74.2-24.76L74.2-24.76 90.34-24.76 90.34-18.8 74.2-18.8Q73.03-18.8 72.42-18.21 71.82-17.61 71.82-16.37L71.82-16.37 71.82-8.36Q71.82-7.19 72.44-6.57 73.05-5.95 74.24-5.95L74.24-5.95 90.34-5.95ZM101.31-35.22L101.31-29.84 95.36-29.84 95.36-35.22 101.31-35.22ZM101.31-24.76L101.31 0 95.36 0 95.36-24.76 101.31-24.76ZM117.89-5.95L117.89 0 115.24 0Q113.95 0 112.5-0.44 111.05-0.87 109.79-1.87 108.53-2.86 107.7-4.45 106.88-6.05 106.88-8.36L106.88-8.36 106.88-35.22 112.83-35.22 112.83-8.36Q112.83-7.26 113.52-6.61 114.21-5.95 115.24-5.95L115.24-5.95 117.89-5.95ZM149.02-24.76L149.02 2.38Q149.02 3.92 148.63 5.14 148.24 6.37 147.6 7.29 146.95 8.22 146.11 8.87 145.26 9.53 144.33 9.94 143.4 10.35 142.47 10.55 141.53 10.74 140.68 10.74L140.68 10.74 129.94 10.74 129.94 4.79 140.68 4.79Q141.87 4.79 142.47 4.17 143.06 3.55 143.06 2.38L143.06 2.38 143.06-24.76 149.02-24.76ZM140.68-5.95L140.68 0 129.94 0Q128.66 0 127.2-0.44 125.75-0.87 124.49-1.87 123.23-2.86 122.4-4.45 121.58-6.05 121.58-8.36L121.58-8.36 121.58-24.76 127.53-24.76 127.53-8.36Q127.53-7.19 128.15-6.57 128.77-5.95 129.98-5.95L129.98-5.95 140.68-5.95ZM178.63-8.36L178.63-8.36Q178.63-6.82 178.24-5.6 177.85-4.37 177.21-3.45 176.56-2.52 175.72-1.87 174.87-1.21 173.94-0.8 173.02-0.39 172.06-0.19 171.11 0 170.27 0L170.27 0 154.15 0 154.15-5.95 170.22-5.95Q171.44-5.95 172.05-6.57 172.67-7.19 172.67-8.36L172.67-8.36Q172.56-10.74 170.27-10.74L170.27-10.74 161.04-10.74Q159.07-10.74 157.69-11.43 156.32-12.11 155.46-13.15 154.6-14.18 154.23-15.37 153.85-16.56 153.85-17.59L153.85-17.59Q153.85-19.58 154.56-20.94 155.27-22.31 156.34-23.15 157.42-24 158.68-24.38 159.94-24.76 161.04-24.76L161.04-24.76 175.67-24.76 175.67-18.8 161.08-18.8Q160.63-18.8 160.36-18.7 160.1-18.6 159.97-18.42 159.85-18.25 159.82-18.06 159.8-17.86 159.8-17.68L159.8-17.68Q159.82-17.31 159.94-17.11 160.05-16.9 160.23-16.81 160.4-16.72 160.61-16.71 160.83-16.69 161.04-16.69L161.04-16.69 170.27-16.69Q172.56-16.69 174.16-15.87 175.76-15.05 176.75-13.8 177.73-12.55 178.18-11.08 178.63-9.62 178.63-8.36Z" transform="translate(-3.4600000381469727, 35.220001220703125)"></path></g> <!----> <!----> <!----> <!----> <!----> <!----> <!----></g></g> <!----></g></g><defs v-gra="od"><linearGradient x1="0" y1="1" x2="0" y2="0" id="e957296d-246e-47d3-a39e-528a084481fb"><stop offset="0%" stop-color="#ff51f9"></stop><stop offset="50%" stop-color="#a348ff"></stop><stop offset="100%" stop-color="#3978ff"></stop></linearGradient><filter id="42443b3f1de60f6b6fd3b6a9844b4764" filterUnits="objectBoundingBox"><feColorMatrix type="matrix" values="0 0 0 0 0.99609375  0 0 0 0 0.99609375  0 0 0 0 0.99609375  0 0 0 1 0"></feColorMatrix></filter></defs><defs v-gra="id"><filter id="9d6b0391-a948-45b6-b1b5-98344354318f" filterUnits="userSpaceOnUse"><feColorMatrix type="matrix" values="0 0 0 0 0.99609375  0 0 0 0 0.99609375  0 0 0 0 0.99609375  0 0 0 1 0"></feColorMatrix></filter><linearGradient x1="0" y1="1" x2="0" y2="0" id="CdPaw70CVZzC-8Z9WKImX"><stop offset="0%" stop-color="#ff51f9"></stop><stop offset="50%" stop-color="#a348ff"></stop><stop offset="100%" stop-color="#3978ff"></stop></linearGradient><filter id="42443b3f1de60f6b6fd3b6a9844b4764" filterUnits="objectBoundingBox"><feColorMatrix type="matrix" values="0 0 0 0 0.99609375  0 0 0 0 0.99609375  0 0 0 0 0.99609375  0 0 0 1 0"></feColorMatrix></filter></defs><mask v-gra="im" id="44b68d4c-c2e8-4fd4-bd3f-ec6d66c3989d"><g class="iconsvg-imagesvg" filter="url(#9d6b0391-a948-45b6-b1b5-98344354318f)"><g><rect fill="#ff51f9" fill-opacity="0" stroke-width="2" x="0" y="0" width="60" height="60" class="image-rect"></rect> <svg x="0" y="0" width="60" height="60" filtersec="colorsf3410854454" class="image-svg-svg primary" style="overflow: visible;"><svg xmlns="http://www.w3.org/2000/svg" viewBox="5.494626998901367 5.494626045227051 53.010711669921875 53.010746002197266" x="0px" y="0px"><g data-name="geometric"><path d="M31.293,29.2124a.99962.99962,0,0,0,1.41406,0L43.7124,18.207a.99962.99962,0,0,0,0-1.41406L32.707,5.7876a.99962.99962,0,0,0-1.41406,0L20.2876,16.793a.99962.99962,0,0,0,0,1.41406ZM32,7.90869,41.59131,17.5,32,27.09131,22.40869,17.5Z"></path><path d="M32,23.71045a.99676.99676,0,0,0,.707-.293l2.60765-2.60765,2.6028-2.6028a.99962.99962,0,0,0,0-1.41406c-1.30136-1.2983-3.90982-3.912-5.21046-5.21045a.99961.99961,0,0,0-1.414,0C29.99455,12.884,27.381,15.49225,26.08252,16.793a.99961.99961,0,0,0,0,1.414l2.60278,2.60278c.00023.00695,2.60576,2.60093,2.60767,2.60768A.99679.99679,0,0,0,32,23.71045Zm-1.90057-4.31464a2.68462,2.68462,0,0,1,3.8012-3.79156A2.68462,2.68462,0,0,1,30.09943,19.39581Z"></path><path d="M32.707,34.7876a.99962.99962,0,0,0-1.41406,0L20.2876,45.793a.99962.99962,0,0,0,0,1.41406L31.293,58.2124a.99962.99962,0,0,0,1.41406,0L43.7124,47.207a.99962.99962,0,0,0,0-1.41406ZM32,56.09131,22.40869,46.5,32,36.90869,41.59131,46.5Z"></path><path d="M31.293,40.58252c-1.29891,1.30151-3.91179,3.9099-5.21045,5.21046a.99961.99961,0,0,0,0,1.41405c1.30136,1.29855,3.90982,3.91185,5.21046,5.21045a.99961.99961,0,0,0,1.41405,0c1.29842-1.30123,3.91194-3.90992,5.21045-5.21046a.99961.99961,0,0,0,0-1.41405l-2.60765-2.60765-2.6028-2.6028A.99962.99962,0,0,0,31.293,40.58252Zm2.6076,4.02167a2.68462,2.68462,0,0,1-3.8012,3.79156A2.68462,2.68462,0,0,1,33.90057,44.60419Z"></path><path d="M58.2124,31.293,47.207,20.2876a.99962.99962,0,0,0-1.41406,0L34.7876,31.293a.99962.99962,0,0,0,0,1.41406L45.793,43.7124a.99962.99962,0,0,0,1.41406,0L58.2124,32.707A.99962.99962,0,0,0,58.2124,31.293ZM46.5,41.59131,36.90869,32,46.5,22.40869,56.09131,32Z"></path><path d="M45.793,26.08252c-1.29891,1.30151-3.91179,3.9099-5.21045,5.21046a.99961.99961,0,0,0,0,1.41405c1.30136,1.29855,3.90982,3.91185,5.21046,5.21045a.99961.99961,0,0,0,1.41405,0c1.29842-1.30123,3.91194-3.90992,5.21045-5.21046a.99961.99961,0,0,0,0-1.414l-2.60765-2.60765-2.6028-2.6028A.99962.99962,0,0,0,45.793,26.08252Zm2.6076,4.02167a2.68462,2.68462,0,0,1-3.8012,3.79156A2.68462,2.68462,0,0,1,48.40057,30.10419Z"></path><path d="M29.2124,31.293,18.207,20.2876a.99962.99962,0,0,0-1.41406,0L5.7876,31.293a.99962.99962,0,0,0,0,1.41406L16.793,43.7124a.99962.99962,0,0,0,1.41406,0L29.2124,32.707A.99962.99962,0,0,0,29.2124,31.293ZM17.5,41.59131,7.90869,32,17.5,22.40869,27.09131,32Z"></path><path d="M16.793,26.08252c-1.29891,1.30151-3.91179,3.9099-5.21045,5.21046a.99961.99961,0,0,0,0,1.41405c1.30136,1.29855,3.90982,3.91185,5.21046,5.21045a.99961.99961,0,0,0,1.414,0c1.29842-1.30123,3.91194-3.90992,5.21045-5.21046a.99961.99961,0,0,0,0-1.414l-2.60765-2.60765-2.6028-2.6028A.99962.99962,0,0,0,16.793,26.08252Zm2.6076,4.02167a2.68462,2.68462,0,0,1-3.8012,3.79156A2.68462,2.68462,0,0,1,19.40057,30.10419Z"></path></g></svg></svg> <defs><filter id="colors3050020234"><feColorMatrix type="matrix" values="0 0 0 0 0.99609375  0 0 0 0 0.31640625  0 0 0 0 0.97265625  0 0 0 1 0" class="icon-fecolormatrix"></feColorMatrix></filter> <filter id="colorsf3410854454"><feColorMatrix type="matrix" values="0 0 0 0 0.99609375  0 0 0 0 0.99609375  0 0 0 0 0.99609375  0 0 0 1 0" class="icon-fecolormatrix"></feColorMatrix></filter> <filter id="colorsb4384231168"><feColorMatrix type="matrix" values="0 0 0 0 0  0 0 0 0 0  0 0 0 0 0  0 0 0 1 0" class="icon-fecolormatrix"></feColorMatrix></filter></defs></g></g></mask></svg>