<?xml version="1.0" encoding="UTF-8" standalone="no"?>
<!-- Created with Inkscape (http://www.inkscape.org/) -->

<svg
   width="127.99999"
   height="127.99999"
   viewBox="0 0 33.866664 33.866664"
   version="1.1"
   id="svg1"
   inkscape:export-filename="image.png"
   inkscape:export-xdpi="96"
   inkscape:export-ydpi="96"
   inkscape:version="1.3.2 (091e20e, 2023-11-25, custom)"
   sodipodi:docname="dessin.svg"
   xmlns:inkscape="http://www.inkscape.org/namespaces/inkscape"
   xmlns:sodipodi="http://sodipodi.sourceforge.net/DTD/sodipodi-0.dtd"
   xmlns="http://www.w3.org/2000/svg"
   xmlns:svg="http://www.w3.org/2000/svg">
  <sodipodi:namedview
     id="namedview1"
     pagecolor="#ffffff"
     bordercolor="#000000"
     borderopacity="0.25"
     inkscape:showpageshadow="2"
     inkscape:pageopacity="0.0"
     inkscape:pagecheckerboard="0"
     inkscape:deskcolor="#d1d1d1"
     inkscape:document-units="mm"
     inkscape:zoom="2.0485264"
     inkscape:cx="25.3841"
     inkscape:cy="168.65782"
     inkscape:window-width="1920"
     inkscape:window-height="1009"
     inkscape:window-x="-8"
     inkscape:window-y="-8"
     inkscape:window-maximized="1"
     inkscape:current-layer="layer1" />
  <defs
     id="defs1" />
  <g
     inkscape:label="Calque 1"
     inkscape:groupmode="layer"
     id="layer1">
    <g
       id="g1"
       transform="translate(0.258,0.258)">
      <path
         d="M 16.703769,1 C 8.0313645,1 1,8.0313672 1,16.703779 1,25.377363 8.0313645,32.40754 16.703769,32.40754 c 8.673584,0 15.703779,-7.030177 15.703779,-15.703761 C 32.407548,8.0313672 25.377353,1 16.703769,1 Z m 0,28.790117 c -7.2280593,0 -13.086344,-5.858298 -13.086344,-13.086338 0,-7.2280575 5.8582847,-13.0867495 13.086344,-13.0867495 7.228058,0 13.086356,5.858692 13.086356,13.0867495 0,7.22804 -5.858298,13.086338 -13.086356,13.086338 z"
         id="path3"
         style="overflow:visible;color-interpolation-filters:sRGB;stroke-width:0.392594" />
      <path
         d="m 24.437876,15.395264 c -0.623429,-3.71277 -3.84388,-6.5433835 -7.734107,-6.5433835 -4.337387,0 -7.8518822,3.5145135 -7.8518822,7.8518985 0,4.337367 3.5144952,7.851881 7.8518822,7.851881 3.890227,0 7.110678,-2.830614 7.734107,-6.543366 h 2.735201 v -2.61703 z m -7.734107,6.542972 c -2.890673,0 -5.234454,-2.342617 -5.234454,-5.234457 0,-2.890673 2.343781,-5.234471 5.234454,-5.234471 2.891859,0 5.234457,2.343798 5.234457,5.234471 0,2.89184 -2.342598,5.234457 -5.234457,5.234457 z"
         id="path4"
         style="overflow:visible;color-interpolation-filters:sRGB;stroke-width:0.392594" />
    </g>
  </g>
</svg>
