<svg data-v-0dd9719b="" version="1.0" xmlns="http://www.w3.org/2000/svg" xmlns:xlink="http://www.w3.org/1999/xlink" width="100%" height="100%" viewBox="0 0 340.000000 250.000000" preserveAspectRatio="xMidYMid meet" color-interpolation-filters="sRGB" style="margin: auto;"> <rect data-v-0dd9719b="" x="0" y="0" width="100%" height="100%" fill="#000000" fill-opacity="0" class="background"></rect> <rect data-v-0dd9719b="" x="0" y="0" width="100%" height="100%" fill="url(#watermark)" fill-opacity="1" class="watermarklayer"></rect> <g data-v-0dd9719b="" fill="#000000" class="icon-text-wrapper icon-svg-group iconsvg" transform="translate(100.51499938964844,65.44999694824219)"><g class="iconsvg-imagesvg" transform="matrix(1,0,0,1,34.98500061035156,0)" opacity="1"><g><rect fill="#000000" fill-opacity="0" stroke-width="2" x="0" y="0" width="69" height="69" class="image-rect"></rect> <svg filter="#000000" x="0" y="0" width="69" height="69" filtersec="#000000" class="image-svg-svg primary" style="overflow: visible;"><svg fill="#000000" xmlns="http://www.w3.org/2000/svg" xmlns:xlink="http://www.w3.org/1999/xlink" version="1.0" x="0px" y="0px" viewBox="10 10 80 80" enable-background="new 0 0 100 100" xml:space="preserve"><path d="M50,10c-22.09,0-40,17.91-40,40c0,22.093,17.91,40,40,40c22.093,0,40-17.907,40-40C90,27.91,72.093,10,50,10z M50,83.333  c-18.411,0-33.333-14.922-33.333-33.333S31.589,16.666,50,16.666S83.333,31.589,83.333,50S68.411,83.333,50,83.333z"></path><path d="M69.7,46.667C68.112,37.21,59.909,30,50,30c-11.048,0-20,8.952-20,20s8.952,20,20,20c9.909,0,18.112-7.21,19.7-16.667h6.967  v-6.666H69.7z M50,63.333c-7.363,0-13.333-5.967-13.333-13.333c0-7.363,5.97-13.333,13.333-13.333  c7.366,0,13.333,5.97,13.333,13.333C63.333,57.366,57.366,63.333,50,63.333z"></path></svg></svg> <defs><filter id="colors2661948880"><feColorMatrix type="matrix" values="0 0 0 0 0.99609375  0 0 0 0 0.99609375  0 0 0 0 0.99609375  0 0 0 1 0" class="icon-fecolormatrix"></feColorMatrix></filter> <filter id="#000000"><feColorMatrix type="matrix" values="0 0 0 0 0.99609375  0 0 0 0 0.99609375  0 0 0 0 0.99609375  0 0 0 1 0" class="icon-fecolormatrix"></feColorMatrix></filter> <filter id="colorsb9429585152"><feColorMatrix type="matrix" values="0 0 0 0 0  0 0 0 0 0  0 0 0 0 0  0 0 0 1 0" class="icon-fecolormatrix"></feColorMatrix></filter></defs></g></g> <g transform="translate(0,76)"><g data-gra="path-name" fill-rule="" class="tp-name iconsvg-namesvg" opacity="1" transform="matrix(1,0,0,1,0,0)"><g transform="scale(1)"><g><path d="M2.76 0L2.76-32.15 24.52-32.15 24.52-27.28 8.6-27.28 8.6-18.26 20.42-18.26 20.42-13.89 8.6-13.89 8.6 0 2.76 0ZM31.69 0.69Q27.74 0.69 25.21-1.4 22.68-3.5 22.68-7.04L22.68-7.04Q22.68-10.72 25.07-12.79 27.46-14.86 31.79-14.86L31.79-14.86Q35.97-14.86 39.01-13.16L39.01-13.16 39.01-13.75Q39.01-16.1 37.56-17.16 36.11-18.22 32.89-18.22L32.89-18.22Q30.87-18.22 28.89-17.82 26.91-17.43 25.39-16.74L25.39-16.74 25.39-21.3Q26.77-21.94 29.09-22.36 31.42-22.77 33.58-22.77L33.58-22.77Q39.33-22.77 42.09-20.31 44.85-17.85 44.85-13.48L44.85-13.48 44.85 0 39.38 0 39.38-2.16Q37.95-0.78 36.13-0.05 34.32 0.69 31.69 0.69L31.69 0.69ZM33.12-3.54Q35.05-3.54 36.62-4.3 38.18-5.06 39.01-6.39L39.01-6.39 39.01-8.83Q36.48-10.63 33.21-10.63L33.21-10.63Q28.57-10.63 28.57-7.04L28.57-7.04Q28.57-5.29 29.74-4.42 30.91-3.54 33.12-3.54L33.12-3.54ZM61.23 0.69Q57.36 0.69 54.44-0.69 51.52-2.07 49.91-4.69 48.3-7.31 48.3-10.99L48.3-10.99Q48.3-14.67 49.93-17.32 51.57-19.96 54.49-21.37 57.41-22.77 61.32-22.77L61.32-22.77Q66.47-22.77 69.55-20.75L69.55-20.75 69.55-16.1Q66.56-18.22 61.92-18.22L61.92-18.22Q58.37-18.22 56.28-16.45 54.19-14.67 54.19-10.99L54.19-10.99Q54.19-7.36 56.28-5.61 58.37-3.86 61.82-3.86L61.82-3.86Q66.47-3.86 69.83-6.07L69.83-6.07 69.83-1.47Q68.17-0.37 66.08 0.16 63.99 0.69 61.23 0.69L61.23 0.69ZM77.69-25.94Q76.31-25.94 75.37-26.86 74.43-27.78 74.43-29.16L74.43-29.16Q74.43-30.54 75.37-31.49 76.31-32.43 77.69-32.43L77.69-32.43Q79.07-32.43 80.04-31.49 81.01-30.54 81.01-29.16L81.01-29.16Q81.01-27.78 80.04-26.86 79.07-25.94 77.69-25.94L77.69-25.94ZM74.75 0L74.75-22.08 80.64-22.08 80.64 0 74.75 0ZM86.53 0L86.53-33.99 92.32-33.99 92.32 0 86.53 0ZM103.13 9.11Q101.94 9.11 100.63 8.95 99.31 8.79 98.58 8.51L98.58 8.51 98.58 4.09Q99.73 4.55 101.43 4.55L101.43 4.55Q103.18 4.55 104.05 3.77 104.93 2.99 105.57 1.29L105.57 1.29 106.44-1.01 96.92-22.08 102.76-22.08 109.57-5.98 115.97-22.08 121.76-22.08 112.1 1.98Q110.63 5.61 108.54 7.36 106.44 9.11 103.13 9.11L103.13 9.11ZM131.97 0.69Q129.58 0.69 126.87 0.14 124.15-0.41 122.64-1.38L122.64-1.38 122.64-6.3Q124.43-5.2 126.91-4.53 129.4-3.86 131.61-3.86L131.61-3.86Q133.81-3.86 134.83-4.25 135.84-4.65 135.84-5.7L135.84-5.7Q135.84-6.53 135.31-7.06 134.78-7.59 133.61-8.03 132.43-8.46 130-9.11L130-9.11Q127.24-9.89 125.65-10.72 124.06-11.55 123.26-12.81 122.45-14.08 122.45-16.1L122.45-16.1Q122.45-19.41 125.07-21.09 127.7-22.77 132.16-22.77L132.16-22.77Q134.46-22.77 136.73-22.33 139.01-21.9 140.3-21.11L140.3-21.11 140.3-16.38Q138.92-17.2 136.94-17.71 134.96-18.22 132.89-18.22L132.89-18.22Q130.64-18.22 129.49-17.78 128.34-17.34 128.34-16.1L128.34-16.1Q128.34-15.27 128.96-14.79 129.58-14.31 130.59-13.96 131.61-13.62 134.27-12.93L134.27-12.93Q137.13-12.14 138.74-11.22 140.35-10.3 141.04-9.02 141.73-7.73 141.73-5.8L141.73-5.8Q141.73-2.85 139.22-1.08 136.71 0.69 131.97 0.69L131.97 0.69Z" transform="translate(-2.759999990463257, 33.9900016784668)"></path></g> <!----> <!----> <!----> <!----> <!----> <!----> <!----></g></g> <!----></g></g><defs v-gra="od"></defs></svg>