<svg xmlns="http://www.w3.org/2000/svg" xmlns:xlink="http://www.w3.org/1999/xlink" enable-background="new 0 0 99.145 41.773" version="1.1" viewBox="0 0 99.145 41.773" x="0px" xml:space="preserve" y="0px" style="fill: rgb(0, 0, 0);" original_string_length="898">
<g>
	<g id="__id848_szcu5w5mw"><polygon points="49.572,0 55.047,11.094 67.29,12.873 58.432,21.509 60.522,33.701 49.572,27.944 38.622,33.701    40.713,21.509 31.854,12.873 44.098,11.094  " style="fill: rgb(0, 0, 0);"/></g>
	<g id="__id849_szcu5w5mw"><polygon points="87.018,14.729 89.965,23.842 99.145,26.58 91.389,32.201 91.622,41.775 83.879,36.136    74.844,39.316 77.815,30.211 71.999,22.601 81.578,22.612  " style="fill: rgb(0, 0, 0);"/></g>
	<g id="__id850_szcu5w5mw"><polygon points="12.127,14.729 9.18,23.842 0,26.58 7.756,32.201 7.522,41.775 15.266,36.136 24.301,39.316    21.329,30.211 27.146,22.601 17.566,22.612  " style="fill: rgb(0, 0, 0);"/></g>
</g>
</svg>