<svg xmlns="http://www.w3.org/2000/svg" xmlns:xlink="http://www.w3.org/1999/xlink" preserveAspectRatio="xMidYMid meet" version="1.0" viewBox="-0.0 0.0 111.3 113.0" zoomAndPan="magnify" style="fill: rgb(0, 0, 0);" original_string_length="1143"><g id="__id1082_s2omclxoj" style="fill: rgb(0, 0, 0);"><path d="M43.691,50.493A21.216,21.216,0,0,0,62.479,69.281,212.517,212.517,0,0,0,85.3,70.322a212.56,212.56,0,0,0-22.823,1.04A21.217,21.217,0,0,0,43.691,90.15a212.552,212.552,0,0,0-1.04,22.822A212.51,212.51,0,0,0,41.61,90.15,21.215,21.215,0,0,0,22.822,71.362,212.552,212.552,0,0,0,0,70.322a212.51,212.51,0,0,0,22.822-1.041A21.214,21.214,0,0,0,41.61,50.493a212.51,212.51,0,0,0,1.041-22.822A212.552,212.552,0,0,0,43.691,50.493Z" style="fill: inherit;"/><path d="M85.937,13.935A12.953,12.953,0,0,0,97.408,25.406a129.75,129.75,0,0,0,13.935.635,130.014,130.014,0,0,0-13.935.635A12.954,12.954,0,0,0,85.937,38.148,129.743,129.743,0,0,0,85.3,52.082a129.7,129.7,0,0,0-.636-13.934A12.954,12.954,0,0,0,73.195,26.676a130.014,130.014,0,0,0-13.935-.635,129.75,129.75,0,0,0,13.935-.635A12.953,12.953,0,0,0,84.666,13.935,129.721,129.721,0,0,0,85.3,0,129.764,129.764,0,0,0,85.937,13.935Z" style="fill: inherit;"/></g></svg>